<?xml version="1.0" encoding="utf-8"?>
<!-- Generator: Adobe Illustrator 22.1.0, SVG Export Plug-In . SVG Version: 6.00 Build 0)  -->
<svg version="1.1" id="Layer_1" xmlns="http://www.w3.org/2000/svg" xmlns:xlink="http://www.w3.org/1999/xlink" x="0px" y="0px"
	 viewBox="0 0 512 512" style="enable-background:new 0 0 512 512;" xml:space="preserve">
<g>
	<path d="M432.8,31H79.2C52.6,31,31,52.6,31,79.2v353.6c0,26.6,21.6,48.2,48.2,48.2h353.6c26.6,0,48.2-21.6,48.2-48.2V79.2
		C481,52.6,459.4,31,432.8,31z M158.6,385.1c-5.5,9.6-17.9,12.9-27.4,7.3c-9.6-5.5-12.9-17.9-7.3-27.4l14.4-24.8
		c16.2-4.9,29.4-1.1,39.8,11.5L158.6,385.1z M298.1,330.9H115.4c-11,0-20.1-9-20.1-20.1s9-20.1,20.1-20.1h51.2L232.3,177l-20.6-35.6
		c-5.5-9.6-2.2-21.9,7.3-27.4c9.6-5.5,21.9-2.2,27.4,7.3l8.9,15.5l8.9-15.5c5.5-9.6,17.9-12.9,27.4-7.3c9.6,5.5,12.9,17.9,7.3,27.4
		l-86.2,149.3h62.4C295.6,290.8,306.9,314.6,298.1,330.9L298.1,330.9z M396.6,330.9h-29.1l19.7,34.1c5.5,9.6,2.2,21.9-7.3,27.4
		c-9.6,5.5-21.9,2.2-27.4-7.3c-33-57.2-57.8-100.1-74.3-128.7c-16.8-29.1-4.8-58.3,7.1-68.1c13.2,22.8,32.8,57,59.2,102.5h52.2
		c11,0,20.1,9,20.1,20.1C416.7,322,407.7,330.9,396.6,330.9L396.6,330.9z"/>
</g>
</svg>
