<svg xmlns="http://www.w3.org/2000/svg" xmlns:xlink="http://www.w3.org/1999/xlink" width="50" height="50" viewBox="0 0 50 50">
<path id="Path_3" data-name="Path 3" d="M0,0H50V50H0Z" fill="#1c1d24"/>
<g id="Mask_Group_2" data-name="Mask Group 2" transform="translate(-632 -19)">
    <path id="instagram" d="M12.5,0C9.108,0,8.681.016,7.348.075A9.21,9.21,0,0,0,4.313.656,6.12,6.12,0,0,0,2.1,2.1,6.136,6.136,0,0,0,.656,4.313,9.156,9.156,0,0,0,.075,7.344C.016,8.68,0,9.1,0,12.5s.016,3.819.075,5.152a9.209,9.209,0,0,0,.581,3.034,6.4,6.4,0,0,0,3.655,3.656,9.177,9.177,0,0,0,3.034.581C8.68,24.984,9.1,25,12.5,25s3.819-.016,5.153-.075a9.228,9.228,0,0,0,3.036-.581,6.4,6.4,0,0,0,3.655-3.656,9.249,9.249,0,0,0,.581-3.034C24.984,16.32,25,15.9,25,12.5s-.016-3.82-.075-5.155a9.239,9.239,0,0,0-.581-3.033A6.134,6.134,0,0,0,22.9,2.1,6.111,6.111,0,0,0,20.688.656,9.2,9.2,0,0,0,17.652.075C16.317.016,15.894,0,12.5,0h0ZM11.38,2.253H12.5c3.337,0,3.733.011,5.05.072a6.927,6.927,0,0,1,2.322.43,3.878,3.878,0,0,1,1.438.936,3.862,3.862,0,0,1,.934,1.438,6.866,6.866,0,0,1,.43,2.32c.061,1.317.073,1.712.073,5.048s-.013,3.733-.073,5.05a6.915,6.915,0,0,1-.43,2.32,4.143,4.143,0,0,1-2.373,2.37,6.877,6.877,0,0,1-2.32.431c-1.317.059-1.712.073-5.05.073s-3.734-.014-5.052-.073a6.9,6.9,0,0,1-2.32-.431A3.872,3.872,0,0,1,3.692,21.3a3.875,3.875,0,0,1-.937-1.437,6.906,6.906,0,0,1-.43-2.32c-.059-1.317-.072-1.712-.072-5.052s.013-3.731.072-5.048a6.916,6.916,0,0,1,.431-2.322,3.878,3.878,0,0,1,.936-1.437A3.862,3.862,0,0,1,5.13,2.752,6.9,6.9,0,0,1,7.45,2.32c1.153-.053,1.6-.069,3.93-.07v0Zm7.794,2.075a1.5,1.5,0,1,0,1.5,1.5,1.5,1.5,0,0,0-1.5-1.5ZM12.5,6.081a6.42,6.42,0,1,0,6.42,6.42,6.419,6.419,0,0,0-6.42-6.42Zm0,2.252A4.167,4.167,0,1,1,8.334,12.5,4.167,4.167,0,0,1,12.5,8.333Z" transform="translate(645 32)" fill="#fff"/>
</g>
</svg>  