<svg xmlns="http://www.w3.org/2000/svg" width="50" height="50" viewBox="0 0 50 50">
<g id="Group_6" data-name="Group 6" transform="translate(-739 -124)">
    <g id="Group_4" data-name="Group 4" transform="translate(76 -73)">
    <path id="Path_6" data-name="Path 6" d="M0,0H50V50H0Z" transform="translate(663 197)" fill="#1c1d24"/>
    </g>
    <path id="linkedin" d="M0,1.289A1.306,1.306,0,0,1,1.322,0H16.678A1.306,1.306,0,0,1,18,1.289V16.711A1.306,1.306,0,0,1,16.678,18H1.322A1.306,1.306,0,0,1,0,16.711ZM5.561,15.068V6.94H2.86v8.128ZM4.211,5.83a1.408,1.408,0,1,0,.018-2.808A1.408,1.408,0,1,0,4.193,5.83Zm5.522,9.238V10.529a1.834,1.834,0,0,1,.09-.659,1.478,1.478,0,0,1,1.386-.988c.978,0,1.368.745,1.368,1.838v4.348h2.7V10.406c0-2.5-1.332-3.658-3.109-3.658A2.684,2.684,0,0,0,9.732,8.09v.028H9.714l.018-.028V6.94h-2.7c.034.763,0,8.128,0,8.128Z" transform="translate(755 140)" fill="#cfd5d9"/>
</g>
</svg>