<svg xmlns="http://www.w3.org/2000/svg" width="50" height="50" viewBox="0 0 50 50">
<g id="Group_1" data-name="Group 1" transform="translate(-610 -213)">
    <path id="Path_3" data-name="Path 3" d="M0,0H50V50H0Z" transform="translate(610 213)" fill="#1c1d24"/>
    <path id="twitter" d="M6.995,19.766c8.4,0,13-6.164,13-11.5,0-.172,0-.347-.008-.52a8.789,8.789,0,0,0,2.281-2.1,10.22,10.22,0,0,1-2.629.638,4.2,4.2,0,0,0,2.014-2.239,9.84,9.84,0,0,1-2.9.977,5.012,5.012,0,0,0-5.491-.8,3.9,3.9,0,0,0-2.3,4.487A13.61,13.61,0,0,1,1.542,4.49a3.781,3.781,0,0,0,1.417,5.4,5.092,5.092,0,0,1-2.068-.5v.055a4.208,4.208,0,0,0,3.663,3.965,5,5,0,0,1-1.2.142,5.061,5.061,0,0,1-.855-.07,4.539,4.539,0,0,0,4.268,2.805,9.952,9.952,0,0,1-5.678,1.733A9.923,9.923,0,0,1,0,17.961a14.263,14.263,0,0,0,6.995,1.8Z" transform="translate(623.866 226.243)" fill="#fff"/>
    <path id="Path_2" data-name="Path 2" d="M0,0H45V45H0Z" transform="translate(613 216)" fill="none"/>
</g>
</svg>